#!OML:ASF H:\MichaelJackson\Top Level 1\Subject 1\Session 1\male.ASF
:FULLY-SPECIFIED
:DEGREES
1691
root -5.22704 16.794 33.6825 -365.71 -29.6166 -3.30311
lowerback 16.4125 1.0755 -4.36531
upperback 4.55078 0.773799 2.70275
thorax -4.42741 0.368918 5.20552
lowerneck -8.60386 -1.90095 2.00666
upperneck 12.9398 -2.97383 0.634874
head 5.29235 -1.32264 -0.340434
rclavicle 1.48592e-014 -1.31198e-014
rhumerus -233.18 192.986 -249.511
rradius 86.8895
rwrist -9.54311
rhand -13.4233 -29.552
rfingers 7.12502
rthumb 12.6851 -59.1468
lclavicle 1.48592e-014 -1.31198e-014
lhumerus -54.9084 -22.4166 106
lradius 76.505
lwrist 12.9278
lhand 7.90065 9.56236
lfingers 7.12502
lthumb 33.1326 36.5345
rfemur -86.0405 -24.4496 58.1415
rtibia 58.6691
rfoot -2.6604 8.10181
rtoes -40.451
lfemur -11.8527 10.9421 -19.8929
ltibia 41.1651
lfoot -16.818 -3.56329
ltoes 33.959
1692
root -5.2655 16.7581 33.6913 -366.619 -30.0631 -2.11131
lowerback 16.5185 1.24043 -5.29101
upperback 4.63891 0.801355 2.11052
thorax -4.39362 0.383311 5.09513
lowerneck -8.57526 -1.79263 2.09715
upperneck 12.8793 -2.86883 0.850621
head 5.27199 -1.25349 -0.280058
rclavicle 2.75449e-014 -1.3067e-014
rhumerus -232.945 194.04 -250.336
rradius 87.5057
rwrist -13.4292
rhand -12.1648 -30.094
rfingers 7.12502
rthumb 13.8982 -59.6096
lclavicle 2.75449e-014 -1.3067e-014
lhumerus -55.2811 -22.7673 105.653
lradius 76.8879
lwrist 13.8711
lhand 7.80226 9.83598
lfingers 7.12502
lthumb 33.039 36.828
rfemur -86.8106 -23.6487 58.4843
rtibia 63.8186
rfoot 2.41765 6.33008
rtoes -38.9244
lfemur -11.4643 11.8773 -20.7423
ltibia 41.4103
lfoot -17.1339 -3.68369
ltoes 33.5077
1693
root -5.30377 16.7267 33.7005 -367.365 -30.3029 -1.1063
lowerback 16.5279 1.30996 -5.99197
upperback 4.70299 0.747509 1.57523
thorax -4.32189 0.355399 4.9327
lowerneck -8.54564 -1.69139 2.15007
upperneck 12.8684 -2.76201 1.01545
head 5.26634 -1.18821 -0.229682
rclavicle 9.73051e-014 -1.45113e-014
rhumerus -232.658 194.978 -251.148
rradius 88.0934
rwrist -17.6365
rhand -11.2102 -30.7497
rfingers 7.12502
rthumb 14.818 -60.1999
lclavicle 9.73051e-014 -1.45113e-014
lhumerus -55.5483 -23.1653 105.362
lradius 77.1306
lwrist 14.6574
lhand 7.70563 10.0975
lfingers 7.12502
lthumb 32.9471 37.1088
rfemur -87.1765 -22.7039 57.8991
rtibia 68.7666
rfoot 6.88322 4.86976
rtoes -35.6754
lfemur -11.1576 12.8172 -21.3912
ltibia 41.6387
lfoot -17.4394 -4.09081
ltoes 33.2051
1694
root -5.34285 16.6992 33.7117 -367.89 -30.3228 -0.353063
lowerback 16.4306 1.27813 -6.44998
upperback 4.73018 0.612959 1.12664
thorax -4.2212 0.286766 4.74024
lowerneck -8.50519 -1.60247 2.15603
upperneck 12.9238 -2.66033 1.13444
head 5.27916 -1.13004 -0.186609
rclavicle 6.6568e-014 -2.72335e-014
rhumerus -232.345 195.76 -251.916
rradius 88.6298
rwrist -21.9498
rhand -10.6602 -31.4281
rfingers 7.12502
rthumb 15.3478 -60.8385
lclavicle 6.6568e-014 -2.72335e-014
lhumerus -55.6979 -23.5882 105.147
lradius 77.1824
lwrist 15.1659
lhand 7.71434 10.3202
lfingers 7.12502
lthumb 32.9554 37.3298
rfemur -87.2522 -21.7202 56.6776
rtibia 73.3978
rfoot 10.772 4.89786
rtoes -33.2367
lfemur -10.9779 13.7387 -21.795
ltibia 41.9021
lfoot -17.735 -4.79694
ltoes 33.1046
1695
root -5.38344 16.6751 33.7244 -368.142 -30.1086 0.105087
lowerback 16.22 1.14476 -6.66349
upperback 4.71187 0.400382 0.78208
thorax -4.09895 0.17983 4.53468
lowerneck -8.47879 -1.53377 2.11608
upperneck 13.0696 -2.57913 1.22869
head 5.32235 -1.08449 -0.145833
rclavicle -1.81639e-014 7.7526e-015
rhumerus -232.023 196.371 -252.635
rradius 89.0859
rwrist -26.0351
rhand -10.5893 -31.9675
rfingers 7.12502
rthumb 15.4161 -61.3726
lclavicle -1.81639e-014 7.7526e-015
lhumerus -55.7185 -24.0316 105.012
lradius 77.0305
lwrist 15.3384
lhand 7.9445 10.5472
lfingers 7.12502
lthumb 33.1743 37.5105
rfemur -87.1218 -20.7618 55.0716
rtibia 77.665
rfoot 14.1917 7.35702
rtoes -32.3556
lfemur -10.9859 14.5979 -21.9399
ltibia 42.252
lfoot -18.013 -5.77558
ltoes 33.2582
1696
root -5.42605 16.6529 33.7377 -368.113 -29.6466 0.269676
lowerback 15.9075 0.914455 -6.66487
upperback 4.63689 0.108942 0.544459
thorax -3.97462 0.0355857 4.33663
lowerneck -8.45527 -1.48947 2.03764
upperneck 13.2997 -2.52775 1.31896
head 5.39245 -1.05459 -0.102514
rclavicle 2.13197e-014 -1.17283e-014
rhumerus -231.718 196.778 -253.317
rradius 89.4455
rwrist -29.4925
rhand -11.1173 -32.3582
rfingers 7.12502
rthumb 14.9075 -61.8018
lclavicle 2.13197e-014 -1.17283e-014
lhumerus -55.6245 -24.4843 104.954
lradius 76.6906
lwrist 15.1769
lhand 8.48619 10.8215
lfingers 7.12502
lthumb 33.6892 37.6737
rfemur -86.8347 -19.8741 53.282
rtibia 81.5392
rfoot 16.8287 11.9493
rtoes -32.8409
lfemur -11.2156 15.3422 -21.8544
ltibia 42.7106
lfoot -18.2631 -6.95397
ltoes 33.6149
1697
root -5.47104 16.6301 33.7516 -367.859 -28.9368 0.212315
lowerback 15.5171 0.606471 -6.52448
upperback 4.51251 -0.252391 0.392293
thorax -3.85544 -0.141486 4.15966
lowerneck -8.45329 -1.47453 1.94011
upperneck 13.6 -2.51803 1.4198
head 5.48835 -1.04423 -0.0561661
rclavicle 5.46658e-015 -6.36111e-015
rhumerus -231.441 196.97 -254
rradius 89.7007
rwrist -31.8857
rhand -12.3588 -32.4742
rfingers 7.12502
rthumb 13.7112 -62.0025
lclavicle 5.46658e-015 -6.36111e-015
lhumerus -55.429 -24.9577 104.96
lradius 76.2124
lwrist 14.7429
lhand 9.37582 11.1904
lfingers 7.12502
lthumb 34.5341 37.854
rfemur -86.4478 -19.116 51.4581
rtibia 85.04
rfoot 18.685 17.8094
rtoes -34.1183
lfemur -11.6513 15.9115 -21.6235
ltibia 43.2625
lfoot -18.4808 -8.24259
ltoes 34.1394
1698
root -5.51771 16.6081 33.7642 -367.455 -28.0124 0.0114335
lowerback 15.0873 0.247104 -6.31417
upperback 4.34249 -0.666493 0.303714
thorax -3.76037 -0.342632 4.01659
lowerneck -8.44919 -1.48977 1.83981
upperneck 13.933 -2.5533 1.5407
head 5.59456 -1.05417 -0.00634059
rclavicle 4.39314e-014 -1.07344e-014
rhumerus -231.22 196.921 -254.713
rradius 89.865
rwrist -32.8097
rhand -14.3696 -32.3523
rfingers 7.12502
rthumb 11.7727 -62.0015
lclavicle 4.39314e-014 -1.07344e-014
lhumerus -55.1746 -25.4478 105.027
lradius 75.6627
lwrist 14.1282
lhand 10.5961 11.6956
lfingers 7.12502
lthumb 35.6915 38.0873
rfemur -85.9548 -18.515 49.6845
rtibia 88.1871
rfoot 19.8628 24.1202
rtoes -35.5051
lfemur -12.2408 16.2682 -21.3198
ltibia 43.8577
lfoot -18.6525 -9.56511
ltoes 34.8246
1699
root -5.5652 16.5884 33.774 -366.972 -26.9185 -0.257429
lowerback 14.6573 -0.132835 -6.0838
upperback 4.14285 -1.10574 0.250632
thorax -3.69627 -0.554745 3.90034
lowerneck -8.45383 -1.54079 1.74801
upperneck 14.2564 -2.64363 1.69241
head 5.69993 -1.08823 0.0477989
rclavicle -5.01931e-015 -5.1684e-015
rhumerus -231.057 196.656 -255.478
rradius 89.9348
rwrist -31.9315
rhand -17.1297 -32.0958
rfingers 7.12502
rthumb 9.11023 -61.879
lclavicle -5.01931e-015 -5.1684e-015
lhumerus -54.8849 -25.9844 105.145
lradius 75.1096
lwrist 13.4545
lhand 12.0592 12.3508
lfingers 7.12502
lthumb 37.0767 38.3954
rfemur -85.3487 -18.0792 48.0069
rtibia 91.0087
rfoot 21.4227 29.4026
rtoes -35.6903
lfemur -12.9152 16.406 -21.0064
ltibia 44.4283
lfoot -18.7824 -10.8372
ltoes 35.531
1700
root -5.61274 16.5715 33.7804 -366.473 -25.7299 -0.522826
lowerback 14.2496 -0.500053 -5.88359
upperback 3.93077 -1.53633 0.209527
thorax -3.65971 -0.761826 3.80894
lowerneck -8.46417 -1.62816 1.67286
upperneck 14.5229 -2.78967 1.8758
head 5.78931 -1.14664 0.105309
rclavicle 3.78188e-014 4.77083e-015
rhumerus -230.96 196.196 -256.303
rradius 89.921
rwrist -29.0905
rhand -20.4356 -31.9764
rfingers 7.12502
rthumb 5.91924 -61.8737
lclavicle 3.78188e-014 4.77083e-015
lhumerus -54.58 -26.5811 105.309
lradius 74.6095
lwrist 12.8311
lhand 13.6342 13.1488
lfingers 7.12502
lthumb 38.5645 38.7922
rfemur -84.6159 -17.7914 46.4452
rtibia 93.5238
rfoot 23.5346 33.2004
rtoes -34.8107
lfemur -13.6065 16.3553 -20.7334
ltibia 44.9123
lfoot -18.8709 -12.0114
ltoes 36.2011
1701
root -5.65979 16.5588 33.783 -365.997 -24.5243 -0.736262
lowerback 13.8819 -0.828302 -5.75822
upperback 3.71673 -1.93102 0.168791
thorax -3.65003 -0.950572 3.75201
lowerneck -8.4636 -1.74718 1.60981
upperneck 14.6929 -2.98242 2.09032
head 5.84752 -1.22587 0.167702
rclavicle 1.03865e-014 -2.38542e-015
rhumerus -230.952 195.554 -257.158
rradius 89.8395
rwrist -24.3218
rhand -24.0265 -32.4907
rfingers 7.12502
rthumb 2.45172 -62.4564
lclavicle 1.03865e-014 -2.38542e-015
lhumerus -54.281 -27.2301 105.517
lradius 74.1956
lwrist 12.3425
lhand 15.1907 14.0812
lfingers 7.12502
lthumb 40.0311 39.2979
rfemur -83.7287 -17.6094 44.9793
rtibia 95.742
rfoot 25.5326 35.5133
rtoes -33.4052
lfemur -14.2625 16.1685 -20.5272
ltibia 45.2718
lfoot -18.9144 -13.0637
ltoes 36.8135
